<svg xmlns="http://www.w3.org/2000/svg" viewBox="0 0 256 256" role="img" aria-labelledby="title desc">
  <title id="title">ContextFabric icon</title>
  <desc id="desc">A private context graph mark with connected memory nodes.</desc>
  <defs>
    <linearGradient id="bg" x1="24" y1="16" x2="232" y2="240" gradientUnits="userSpaceOnUse">
      <stop offset="0" stop-color="#22D3EE"/>
      <stop offset=".45" stop-color="#6366F1"/>
      <stop offset="1" stop-color="#A855F7"/>
    </linearGradient>
    <radialGradient id="glow" cx="50%" cy="40%" r="62%">
      <stop offset="0" stop-color="#FFFFFF" stop-opacity=".30"/>
      <stop offset="1" stop-color="#FFFFFF" stop-opacity="0"/>
    </radialGradient>
  </defs>
  <rect width="256" height="256" rx="58" fill="#070A18"/>
  <rect x="14" y="14" width="228" height="228" rx="48" fill="url(#bg)"/>
  <rect x="14" y="14" width="228" height="228" rx="48" fill="url(#glow)"/>
  <path d="M78 102 L128 72 L178 102 L178 154 L128 184 L78 154 Z" fill="none" stroke="white" stroke-width="10" stroke-linejoin="round" opacity=".90"/>
  <path d="M128 72 V128 L178 154 M128 128 L78 154 M128 128 L178 102 M128 128 L78 102 M128 128 V184" fill="none" stroke="white" stroke-width="5" stroke-linecap="round" opacity=".48"/>
  <circle cx="128" cy="128" r="27" fill="#070A18" opacity=".36"/>
  <circle cx="128" cy="128" r="19" fill="white"/>
  <circle cx="128" cy="72" r="13" fill="white"/>
  <circle cx="178" cy="102" r="13" fill="white" opacity=".86"/>
  <circle cx="178" cy="154" r="13" fill="white" opacity=".86"/>
  <circle cx="128" cy="184" r="13" fill="white"/>
  <circle cx="78" cy="154" r="13" fill="white" opacity=".86"/>
  <circle cx="78" cy="102" r="13" fill="white" opacity=".86"/>
</svg>
